<?xml version="1.0" encoding="UTF-8" standalone="no"?>
<!-- Created with Inkscape (http://www.inkscape.org/) -->

<svg
   xmlns:dc="http://purl.org/dc/elements/1.1/"
   xmlns:cc="http://creativecommons.org/ns#"
   xmlns:rdf="http://www.w3.org/1999/02/22-rdf-syntax-ns#"
   xmlns:svg="http://www.w3.org/2000/svg"
   xmlns="http://www.w3.org/2000/svg"
   xmlns:sodipodi="http://sodipodi.sourceforge.net/DTD/sodipodi-0.dtd"
   xmlns:inkscape="http://www.inkscape.org/namespaces/inkscape"
   width="210mm"
   height="297mm"
   viewBox="0 0 210 297"
   version="1.1"
   id="svg8"
   inkscape:version="0.92.3 (2405546, 2018-03-11)"
   sodipodi:docname="circles.svg">
  <defs
     id="defs2" />
  <sodipodi:namedview
     id="base"
     pagecolor="#ffffff"
     bordercolor="#666666"
     borderopacity="1.0"
     inkscape:pageopacity="0.0"
     inkscape:pageshadow="2"
     inkscape:zoom="0.7"
     inkscape:cx="108.08086"
     inkscape:cy="672.20981"
     inkscape:document-units="mm"
     inkscape:current-layer="layer1"
     showgrid="false"
     inkscape:snap-center="false"
     inkscape:snap-object-midpoints="false"
     inkscape:window-width="1920"
     inkscape:window-height="1015"
     inkscape:window-x="0"
     inkscape:window-y="0"
     inkscape:window-maximized="1"
     inkscape:snap-text-baseline="false" />
  <metadata
     id="metadata5">
    <rdf:RDF>
      <cc:Work
         rdf:about="">
        <dc:format>image/svg+xml</dc:format>
        <dc:type
           rdf:resource="http://purl.org/dc/dcmitype/StillImage" />
        <dc:title></dc:title>
      </cc:Work>
    </rdf:RDF>
  </metadata>
  <g
     inkscape:label="Layer 1"
     inkscape:groupmode="layer"
     id="layer1"
     style="display:inline">
    <ellipse
       style="fill:#d40000;stroke-width:0.26458332"
       id="path3713"
       cx="105"
       cy="148.5"
       rx="78.619049"
       ry="78.052086" />
    <ellipse
       style="fill:#ffffff;stroke-width:0.52024651"
       id="path3719"
       cx="105"
       cy="148.5"
       rx="62.555061"
       ry="59.708351" />
    <g
       aria-label="Text"
       style="font-style:normal;font-weight:normal;font-size:25.39999962px;line-height:1.25;font-family:sans-serif;letter-spacing:0px;word-spacing:0px;fill:#000000;fill-opacity:1;stroke:none;stroke-width:0.26458332"
       id="text3742">
      <path
         d="m 79.575198,139.06182 h 15.66416 v 2.1084 h -6.573242 v 16.4083 H 86.14844 v -16.4083 h -6.573242 z"
         style="font-size:25.39999962px;stroke-width:0.26458332"
         id="path3770" />
      <path
         d="m 105.13643,150.0627 v 1.11621 H 94.644046 q 0.148828,2.35645 1.413867,3.59668 1.277441,1.22783 3.54707,1.22783 1.314647,0 2.542477,-0.32246 1.24024,-0.32246 2.45567,-0.96738 v 2.15801 q -1.22783,0.5209 -2.51768,0.79375 -1.28984,0.27285 -2.616893,0.27285 -3.323828,0 -5.270996,-1.93477 -1.934765,-1.93476 -1.934765,-5.23378 0,-3.41065 1.835547,-5.40743 1.847949,-2.00918 4.973339,-2.00918 2.802928,0 4.427638,1.81075 1.63711,1.79834 1.63711,4.89892 z m -2.28203,-0.66973 q -0.0248,-1.87275 -1.0542,-2.98896 -1.01699,-1.11621 -2.703713,-1.11621 -1.909961,0 -3.063379,1.079 -1.141015,1.07901 -1.314648,3.03858 z"
         style="font-size:25.39999962px;stroke-width:0.26458332"
         id="path3772" />
      <path
         d="m 119.98203,143.6879 -5.02295,6.75927 5.2834,7.13135 h -2.69131 l -4.04316,-5.45703 -4.04316,5.45703 h -2.69131 l 5.39502,-7.26777 -4.93614,-6.62285 h 2.69131 l 3.6835,4.94853 3.6835,-4.94853 z"
         style="font-size:25.39999962px;stroke-width:0.26458332"
         id="path3774" />
      <path
         d="m 125.72432,139.74395 v 3.94395 h 4.70049 v 1.77353 h -4.70049 v 7.54063 q 0,1.69912 0.45889,2.18281 0.47129,0.48369 1.89755,0.48369 h 2.34405 v 1.90996 h -2.34405 q -2.64169,0 -3.64628,-0.97978 -1.00459,-0.99219 -1.00459,-3.59668 v -7.54063 h -1.67432 v -1.77353 h 1.67432 v -3.94395 z"
         style="font-size:25.39999962px;stroke-width:0.26458332"
         id="path3776" />
    </g>
  </g>
</svg>
